<svg width="91" height="65" viewBox="0 0 91 65" fill="none" xmlns="http://www.w3.org/2000/svg">
<path fill-rule="evenodd" clip-rule="evenodd" d="M14.8457 0.0549791C12.7281 0.156689 10.8412 0.478037 9.76006 0.921051C7.70426 1.76343 5.9347 3.43739 4.38327 6.00727C3.07887 8.16796 2.00236 11.0268 1.44986 13.7973C1.14908 15.3057 1.17163 15.3578 1.64012 14.2369C2.95021 11.1025 4.99573 8.60621 7.48319 7.10613C8.81568 6.30251 10.2169 5.79173 11.9007 5.49589C12.3713 5.41317 12.8336 5.38984 14.0008 5.38978C15.6448 5.38972 16.2857 5.46532 17.8009 5.83816C18.9429 6.11911 18.8404 6.05406 19.292 6.7846C20.5358 8.79673 21.7731 10.3117 23.0414 11.3755C23.2735 11.5701 23.5312 11.773 23.6141 11.8264L23.7647 11.9233L23.7914 13.9606C23.819 16.0676 23.8544 16.6757 24.0244 17.9573C24.2298 19.5052 24.7351 21.0905 25.2977 21.9516C25.4439 22.1755 25.5635 22.3835 25.5635 22.4139C25.5635 22.4443 25.4835 22.5189 25.3856 22.5797C25.0489 22.7887 25.0088 22.9233 25.005 23.8552C25.0018 24.6193 24.9916 24.7084 24.8665 25.0716C24.5351 26.0339 24.0794 27.0418 23.231 28.689C22.4756 30.1556 22.0609 30.9913 21.5501 32.0758C20.07 35.2182 18.5783 37.8026 16.4579 40.8978C15.5972 42.1541 14.7301 43.3492 12.6741 46.1129C10.1913 49.4502 10.1872 49.4564 8.15079 52.866C6.51327 55.6077 6.00273 56.3869 5.14279 57.4567C4.42498 58.3497 4.24973 58.4945 3.6209 58.7136C2.77467 59.0084 2.5606 59.2897 1.82199 61.0774C1.35436 62.2091 1.13662 62.6208 0.789211 63.0301C0.501084 63.3696 0.361269 63.4791 0.144836 63.5348C0.0433542 63.5608 0 63.6073 0 63.6901C0 63.805 0.0577412 63.8092 2.17254 63.8463C4.74246 63.8913 5.42865 63.9421 11.0317 64.5013C14.797 64.8771 16.4232 64.9836 18.3942 64.9833C19.9526 64.9831 20.1813 64.9501 21.7013 64.5065C23.1639 64.0797 23.6162 63.9992 24.3517 64.0353C25.1901 64.0764 25.7759 64.301 26.3652 64.8073L26.5895 65L26.9817 64.9314C27.615 64.8208 27.9713 64.6902 28.4844 64.3805C29.2837 63.8981 29.6842 63.3601 30.683 61.4267C30.9828 60.8464 31.3895 60.0596 31.5867 59.6783C32.4075 58.0913 32.7994 56.7481 32.8816 55.2404C32.906 54.7926 32.8994 54.6191 32.8568 54.5862C32.7416 54.4973 32.173 55.0371 31.1103 56.2443C29.339 58.2563 28.4218 58.6807 25.3704 58.9002C24.1372 58.9889 21.5925 58.9402 18.877 58.7757C13.9409 58.4767 11.9139 58.4781 10.0661 58.782C8.98828 58.9593 7.96477 58.9611 7.45162 58.7868C6.999 58.633 6.59004 58.3817 6.59004 58.2574C6.59004 58.069 7.18551 56.8044 7.68606 55.9297C8.70343 54.1521 9.59244 52.9196 12.5055 49.248C15.3864 45.6171 16.0727 44.6833 17.092 43.008C17.4427 42.4317 18.37 40.7007 18.37 40.6224C18.37 40.5969 18.5963 40.4076 18.8729 40.2019C19.6524 39.622 20.168 39.1107 20.9343 38.1578C21.9878 36.8477 22.4752 36.0497 24.2133 32.7888C25.8822 29.6577 26.4545 28.7186 27.4484 27.4803C27.9643 26.8376 28.806 25.9888 29.3293 25.5836C29.4488 25.491 29.5602 25.3892 29.5768 25.3574C29.6727 25.174 29.4202 24.8418 28.9446 24.5251C28.4103 24.1695 28.3018 23.7723 28.5551 23.1003C29.0232 21.8589 29.3196 20.3685 29.4822 18.4396C29.5624 17.488 29.5632 14.5475 29.4835 13.6164C29.2728 11.1538 28.8137 9.0646 28.2057 7.80103C27.9032 7.17238 27.7728 7.00719 27.543 6.96131C27.3335 6.91947 27.0913 6.69193 26.9863 6.43823C26.9475 6.3446 26.8721 6.03428 26.8188 5.74851C26.7018 5.12173 26.6346 4.94942 26.4117 4.70512C26.1461 4.41386 25.9215 4.35393 25.5875 4.48512C25.1339 4.66328 24.7643 5.01441 23.8497 6.13605C22.9394 7.25227 22.7288 7.44864 22.2587 7.61932C21.9579 7.7285 21.3953 7.71168 21.2983 7.59062C21.2214 7.49452 21.4094 7.05325 21.6614 6.73847C21.8852 6.45903 22.2829 6.129 22.9198 5.69412C23.8035 5.09086 24.1677 4.27718 24.0181 3.24079C23.8241 1.89649 22.7225 1.01746 20.5518 0.474842C20.1617 0.377352 19.5293 0.255023 19.1464 0.203052C18.5013 0.11545 16.4227 -0.0167062 15.9802 0.00174271C15.874 0.00614391 15.3635 0.0301395 14.8457 0.0549791ZM82.8622 0.116174C80.4581 0.36445 78.1793 1.4958 76.0872 3.47966C75.4789 4.05651 74.2097 5.62931 73.7456 6.38155C71.0057 10.8221 70.1239 16.2277 71.2598 21.6197C71.7418 23.908 72.6923 26.1993 73.9049 27.9966C75.9934 31.0919 78.9317 33.1108 82.2961 33.7621C83.2455 33.9459 85.4439 33.9628 86.4429 33.794C87.212 33.6642 88.2838 33.3941 89.0258 33.1434C89.5222 32.9756 89.5708 32.9454 89.7696 32.6804C90.2438 32.0485 90.4703 31.1149 90.6904 28.8863C90.7716 28.0649 90.8744 27.1518 90.9189 26.8573L91 26.3217L90.8919 26.2124C90.7442 26.063 90.4016 26.0071 90.184 26.0968C89.7749 26.2653 89.5572 26.6296 88.9229 28.2072C88.3887 29.5355 88.158 29.9048 87.6823 30.193C86.9739 30.6222 85.9963 30.8489 84.6265 30.9015C82.9897 30.9644 81.8048 30.7689 81.0828 30.3168C79.6269 29.4053 77.7722 27.3143 77.179 25.9157C76.9115 25.2848 76.8851 25.1012 76.8381 23.544C76.7878 21.8726 76.7584 21.6992 76.2629 20.1483C75.8703 18.9195 75.8347 18.7451 75.7689 17.7305C75.6988 16.6485 75.7388 14.3658 75.8453 13.3752C76.2169 9.91789 77.0873 7.23328 78.4734 5.26938C79.9982 3.10881 82.0538 2.0893 84.4877 2.28639C85.2628 2.34915 86.1739 2.55866 86.3938 2.7247C86.6803 2.9409 87.3492 3.6677 88.2004 4.68763C89.3573 6.07371 90.2698 6.96474 90.4807 6.91404C90.5917 6.88733 90.683 6.51884 90.6873 6.0801C90.689 5.89772 90.635 5.31441 90.5673 4.78386C90.4716 4.03439 90.4475 3.6516 90.4591 3.06787L90.4742 2.31653L90.0397 2.02925C87.7757 0.532118 85.2785 -0.133428 82.8622 0.116174ZM40.1196 0.152107C39.1566 0.174415 37.6252 0.284505 36.4529 0.415817C35.5494 0.516985 34.9543 0.598256 33.5161 0.81699C33.3891 0.836283 33.2751 0.872698 33.2626 0.89796C33.2501 0.923222 33.3647 1.0312 33.5175 1.13792C34.1948 1.61126 34.848 2.3556 35.2564 3.1193L35.4615 3.50287L35.449 17.1963C35.4369 30.4738 35.4338 30.896 35.3456 31.1006C35.2957 31.2167 35.0764 31.5436 34.8584 31.8271C34.4543 32.3529 34.2767 32.7446 34.3099 33.0372L34.3261 33.1806L37.7753 33.1961C39.6724 33.2046 41.2421 33.1896 41.2637 33.1627C41.2852 33.1358 41.2697 32.9745 41.2291 32.8042C41.1331 32.4004 40.8875 32.1364 40.3686 31.8791C39.575 31.4856 39.3946 31.3293 39.256 30.9152C39.196 30.7358 39.1922 30.5651 39.2324 29.8609C39.2656 29.2792 39.2635 28.5475 39.2256 27.4832C39.0485 22.5101 39.085 21.4371 39.4738 20.1779C39.6397 19.6408 39.9666 19.055 40.1288 19.0041C40.1902 18.9849 40.5574 18.9996 40.945 19.0369C43.3037 19.2638 45.5312 19.1485 47.3519 18.7051C51.3721 17.7262 53.8272 15.0476 54.7239 10.6619C54.8157 10.2128 54.8172 10.1528 54.7508 9.56537C54.6633 8.79112 54.5727 8.30416 54.3941 7.64765C53.2542 3.45874 49.8436 0.990506 44.2715 0.322126C43.5809 0.239287 41.089 0.0967001 40.8437 0.126001C40.7906 0.132392 40.4648 0.144088 40.1196 0.152107ZM60.8631 0.698157C60.7472 0.974227 58.7772 8.5584 57.8207 12.4106C56.7176 16.8536 55.5592 21.8244 55.334 23.082C55.2657 23.4633 55.1008 24.5401 54.9677 25.4749C54.6691 27.5703 54.5601 28.2043 54.3801 28.8921C54.1026 29.9525 53.8512 30.3803 52.9437 31.3366C52.333 31.9802 51.9536 32.4591 51.7934 32.7888C51.6383 33.1079 51.5146 33.6887 51.5835 33.7745C51.6784 33.8929 53.1863 33.8469 54.1204 33.6972C54.5718 33.6248 55.3159 33.5497 55.7739 33.5302C56.2319 33.5107 56.6067 33.4749 56.6067 33.4505C56.6067 33.4262 56.5307 33.2486 56.4378 33.0559C55.825 31.7851 55.7492 30.0747 56.2185 28.105C56.4847 26.988 57.1125 25.308 57.6114 24.3782L57.8378 23.9562H61.4518H65.0657L65.2706 24.7098C65.3832 25.1243 65.6827 26.101 65.9361 26.8803C66.625 28.9987 66.7935 29.7733 66.7935 30.8206C66.7935 31.8278 66.6157 32.4379 66.1309 33.0935C65.9921 33.2812 65.8925 33.4522 65.9096 33.4735C65.9266 33.4948 67.2513 33.5122 68.8534 33.5122C71.4002 33.5122 71.7662 33.501 71.7662 33.4225C71.7662 33.3732 71.6063 32.8916 71.4108 32.3524C70.5366 29.9411 69.5965 26.7967 68.7742 23.5342C68.0472 20.649 67.6666 18.9935 66.3286 12.8929C64.9902 6.79135 64.3327 3.96138 63.7371 1.73919L63.4382 0.623819L62.173 0.607722C61.005 0.59289 60.9043 0.599884 60.8631 0.698157ZM46.8062 3.03429C46.8062 3.12792 46.7015 3.1729 46.4203 3.20003C46.3049 3.21118 46.2467 3.24947 46.2358 3.32139C46.208 3.50431 46.6985 4.03728 47.5545 4.7545C49.0848 6.03663 49.443 6.68246 49.6578 8.54616C49.7291 9.16577 49.6932 10.3933 49.5852 11.0239C49.3303 12.5124 48.5444 14.4347 47.5598 15.9781C47.3548 16.2995 47.3263 16.3223 47.086 16.357C46.9453 16.3773 46.222 16.4863 45.4785 16.5992C44.735 16.7121 43.866 16.8359 43.5473 16.8743C42.8032 16.964 41.3476 16.9645 40.8196 16.8753C40.3682 16.799 39.6455 16.5747 39.3526 16.42L39.1649 16.321L39.1926 11.6979C39.2182 7.43019 39.261 5.48817 39.3677 3.74873C39.3904 3.37843 39.4235 3.04605 39.4412 3.01017C39.4639 2.96441 40.5637 2.945 43.1398 2.945C46.3456 2.945 46.8062 2.95621 46.8062 3.03429ZM61.8465 9.50158C62.4813 11.9943 63.0953 14.6235 63.6734 17.3243C64.1122 19.3741 64.5727 21.6576 64.5727 21.7838C64.5727 21.8659 64.2026 21.8762 61.2415 21.8762C58.0671 21.8762 57.9102 21.8711 57.9102 21.7678C57.9102 21.7082 58.0594 21.1316 58.2417 20.4866C58.424 19.8416 58.7518 18.622 58.9703 17.7764C60.1678 13.1412 60.5419 11.7605 61.0369 10.1497C61.4449 8.82193 61.5181 8.6123 61.5739 8.6123C61.5992 8.6123 61.7219 9.01245 61.8465 9.50158Z" fill="white"/>
</svg>
