<svg width="656" height="656" viewBox="0 0 656 656" fill="none" xmlns="http://www.w3.org/2000/svg">
<path d="M656 328C656 509.149 509.149 656 328 656C146.851 656 0 509.149 0 328C0 146.851 146.851 0 328 0C509.149 0 656 146.851 656 328Z" fill="white"/>
<path fill-rule="evenodd" clip-rule="evenodd" d="M190.189 316.2C192.389 307 199.989 277.3 225.789 261.1C233.489 256.2 243.289 252.4 260.489 250.4C317.789 244 364.289 273.3 368.589 275.6C385.789 284.9 445.289 311.9 457.789 370.4C460.689 383.8 458.289 401.5 453.389 436.2C442.689 511.4 437.389 549 416.089 570.4C381.889 604.7 332.189 602.8 324.489 602.4C316.089 602 266.589 599.3 240.089 564.2C217.889 534.8 219.289 492.7 202.789 491.3C197.889 490.9 196.589 494.5 191.189 494C171.189 491.9 153.289 437.5 168.989 422.9C175.289 417 181.589 422.6 188.589 417.6C205.289 405.3 178.289 365.9 190.189 316.2Z" fill="black"/>
<path fill-rule="evenodd" clip-rule="evenodd" d="M540.889 186C537.189 186 534.189 189 534.189 192.7C534.189 195.5 535.889 197.8 538.289 198.9C533.289 208.6 521.489 235.5 502.889 237.2C490.989 238.3 481.289 228.8 477.089 224.8C457.789 206 460.189 177 460.789 171.5C462.489 155.1 469.489 141.1 474.289 132.9C475.689 133.7 477.389 134.1 479.089 134.1C484.689 134.1 489.289 129.5 489.289 123.9C489.289 118.3 484.689 113.7 479.089 113.7C473.489 113.7 468.889 118.3 468.889 123.9C468.889 127.6 470.789 130.8 473.689 132.6C472.789 134.1 471.989 135.4 471.489 136.1C455.389 161.5 411.189 188.2 380.789 172.4C355.789 159.4 347.289 121.3 348.989 97.7C349.689 88.4 352.289 76.6 352.089 72.5C352.489 72.5 352.889 72.6 353.289 72.6C358.689 72.6 363.089 68.2 363.089 62.8C363.089 57.4 358.689 53 353.289 53C347.889 53 343.489 57.4 343.489 62.8C343.489 67.1 346.289 70.8 350.189 72.1C348.289 74.7 345.589 81.1 344.589 83.6C331.289 114.4 290.689 164.9 259.689 158.2C250.989 156.3 243.589 150 239.889 143.1C232.489 129.1 239.089 110.2 243.789 99.6C244.889 100.4 246.289 100.8 247.689 100.8C251.489 100.8 254.589 97.7 254.589 93.9C254.589 90.1 251.489 87 247.689 87C243.889 87 240.789 90.1 240.789 93.9C240.789 96.1 241.789 98 243.389 99.3C237.989 111.2 229.489 132.4 229.489 132.4C218.689 159.3 209.489 186.9 197.689 213.3C190.289 229.8 185.589 238.6 184.789 253.3C183.789 271.1 188.889 289 190.789 288.9C191.889 288.8 191.589 282.9 192.489 277.3C196.089 256.6 217.289 243.8 225.189 239.1C265.989 214.5 343.689 250.9 377.289 266.7C415.089 284.4 465.089 308.6 470.089 347.6C470.989 354.3 470.689 363 473.489 363.6C479.189 364.9 488.989 331.6 510.489 276.5C521.589 248.1 536.689 211.5 540.089 199.6C540.289 199.6 540.589 199.6 540.789 199.6C544.489 199.6 547.489 196.6 547.489 192.9C547.489 189.2 544.489 186 540.889 186Z" fill="black"/>
</svg>
