<svg width="92" height="52" viewBox="0 0 92 52" fill="none" xmlns="http://www.w3.org/2000/svg">
<path fill-rule="evenodd" clip-rule="evenodd" d="M53.9344 10.7502C55.1968 8.33781 54.9968 6.05044 53.3094 3.87557C51.2345 1.86318 48.7597 0.688251 45.8723 0.375769C44.8974 0.163281 43.8974 0.0882853 42.8725 0.125783C40.7851 -0.0367075 38.6977 0.000790352 36.6229 0.250776C35.6479 0.375769 34.648 0.475763 33.623 0.563258C33.523 0.600756 33.4355 0.663252 33.373 0.750747C34.2605 1.16322 34.948 1.78819 35.4354 2.62564C35.5229 9.96272 35.5229 17.2873 35.4354 24.6244C35.3979 24.7494 35.3479 24.8744 35.3104 24.9993C34.7605 25.3618 34.448 25.8618 34.373 26.4993C36.7104 26.4993 39.0352 26.4993 41.3726 26.4993C41.3851 26.1868 41.2601 25.9368 40.9976 25.7493C40.4851 25.5243 39.9852 25.2743 39.4977 24.9993C39.3227 24.7369 39.2352 24.4494 39.2477 24.1244C39.2977 21.812 39.2977 19.4747 39.2477 17.1248C39.3352 16.3873 39.6227 15.7499 40.1227 15.1874C42.335 15.2999 44.5349 15.2624 46.7473 15.0624C47.7347 14.8124 48.7347 14.5624 49.7471 14.3125C51.4845 13.525 52.8844 12.3376 53.9344 10.7502ZM49.7471 7.50036C49.5846 9.53774 48.8347 11.3251 47.4972 12.875C47.3472 12.9875 47.1848 13.0375 46.9973 13C46.3973 13.05 45.8098 13.1375 45.2474 13.25C43.685 13.4875 42.11 13.55 40.4976 13.4375C40.0477 13.4125 39.6602 13.2625 39.3102 13C39.2102 9.41275 39.2727 5.82545 39.4977 2.25066C41.9601 2.21316 44.4099 2.25066 46.8723 2.37565C46.6598 2.46315 46.4598 2.53814 46.2473 2.62564C46.8473 3.3006 47.5472 3.85057 48.3722 4.25055C49.3846 5.0755 49.8346 6.16294 49.7471 7.50036Z" fill="white"/>
<path fill-rule="evenodd" clip-rule="evenodd" d="M68.7461 18.6249C67.3211 13.7377 65.9712 8.81295 64.6838 3.87574C64.2713 2.8133 63.8963 1.73836 63.5589 0.625926C62.6714 0.500933 61.784 0.463435 60.8715 0.500933C59.1466 5.67563 57.5217 10.8878 55.9968 16.125C55.8343 16.425 55.7593 16.7625 55.7468 17.125C55.6093 17.6999 55.4468 18.2874 55.2468 18.8749C55.0968 20.2873 54.8469 21.6872 54.4969 23.0621C54.2844 23.3371 54.1344 23.6496 54.0594 23.9996C53.3844 24.712 52.6845 25.3745 51.9345 25.9995C51.6845 26.2869 51.572 26.6119 51.622 26.9994C52.547 27.0369 53.4719 26.9994 54.3719 26.8744C55.1718 26.9119 55.9593 26.8744 56.7467 26.7494C56.7342 26.6744 56.6843 26.6369 56.6218 26.6244C56.4843 26.3244 56.3468 26.037 56.1843 25.7495C55.8468 24.0371 56.0718 22.4122 56.8717 20.8748C57.0467 20.8123 57.1342 20.6873 57.1217 20.4998C57.2842 20.0123 57.5342 19.5748 57.8717 19.1874C60.284 19.0874 62.7089 19.0999 65.1213 19.2498C65.5837 20.4623 66.0712 21.6747 66.5587 22.8746C66.6712 23.4371 66.7712 23.9996 66.8712 24.562C66.8837 25.3995 66.5837 26.087 65.9962 26.6244C65.9337 26.6369 65.8837 26.6744 65.8712 26.7494C67.8961 26.9119 69.896 26.9119 71.8709 26.7494C70.7584 24.2996 69.796 21.7997 68.996 19.2498C69.046 18.9749 68.9585 18.7624 68.7461 18.6249ZM61.309 17.375C60.1841 17.375 59.0841 17.3375 57.9967 17.25C58.7716 15.2126 59.4466 13.1377 59.9966 11.0003C60.534 9.58791 61.084 8.16299 61.6215 6.75057C62.5964 9.7254 63.4714 12.7252 64.2463 15.7501C64.2088 16.0875 64.2838 16.3875 64.4963 16.625C64.4838 16.8125 64.5338 16.975 64.6213 17.125C63.5589 17.2875 62.4589 17.375 61.309 17.375Z" fill="white"/>
<path fill-rule="evenodd" clip-rule="evenodd" d="M89.9948 20.9372C89.3324 21.7497 88.8199 22.6496 88.4324 23.6246C88.1324 23.9371 87.7699 24.1621 87.37 24.3121C85.7201 24.612 84.0452 24.687 82.3703 24.562C81.8828 24.5495 81.4203 24.4245 80.9953 24.1871C79.4704 23.2496 78.208 22.0622 77.1831 20.6248C77.0206 20.3123 76.9581 19.9748 76.9956 19.6248C76.9956 18.7874 76.9331 17.9499 76.8081 17.125C76.7831 16.975 76.7206 16.85 76.6206 16.75C76.3206 16.15 76.0956 15.5251 75.9331 14.8751C75.8456 13.1627 75.8706 11.4628 75.9956 9.75039C76.0706 9.7379 76.1331 9.7004 76.1831 9.6254C76.2456 9.33792 76.2706 9.05043 76.2456 8.75045C76.5081 7.9505 76.8081 7.13804 77.1206 6.31309C78.183 3.97573 79.9329 2.50081 82.3703 1.87585C83.5827 1.85085 84.7951 1.88835 85.995 2.00084C86.47 2.12583 86.8825 2.36332 87.245 2.6883C88.1699 3.70074 89.1699 4.61319 90.2448 5.43814C90.3573 5.50064 90.4823 5.51314 90.6198 5.50064C90.6823 5.26315 90.7573 5.03817 90.8698 4.81318C90.5948 3.76324 90.4698 2.7008 90.4948 1.62586C89.7448 1.32588 88.9949 1.0134 88.2449 0.688416C84.9201 -0.361523 81.6703 -0.186533 78.4955 1.18839C72.0833 4.95067 69.7335 10.4629 71.4334 17.7499C73.3958 23.2621 77.2955 26.3869 83.1202 27.1244C84.0952 27.2744 85.0951 27.2869 86.12 27.1869C86.195 27.1369 86.2325 27.0744 86.245 26.9994C86.8325 26.9744 87.42 26.9119 87.9949 26.8119C88.7074 26.6494 89.3699 26.3869 89.9948 25.9995C90.2948 25.587 90.4823 25.137 90.5573 24.6245C90.7698 23.4121 90.9573 22.2122 91.1198 20.9997C90.7573 20.7123 90.3823 20.6873 89.9948 20.9372Z" fill="white"/>
<path fill-rule="evenodd" clip-rule="evenodd" d="M32.7481 43.7484C31.9107 44.3108 31.1107 44.9608 30.3732 45.6857C29.0858 46.6482 27.6234 47.0982 25.9985 47.0607C24.1611 47.1232 22.3362 47.1482 20.4988 47.1232C18.3989 46.9482 16.2741 46.8607 14.1242 46.8732C12.4743 46.8482 10.8494 46.9232 9.24947 47.1232C8.7495 47.1482 8.24952 47.1232 7.74955 47.0607C7.31208 47.0107 6.9371 46.8482 6.62462 46.5607C6.68711 46.4232 6.72461 46.2732 6.74961 46.1232C7.44957 45.1108 8.17453 44.1108 8.93698 43.1234C11.4868 40.511 13.9992 37.8862 16.499 35.2488C17.174 34.4239 17.7865 33.5489 18.3114 32.624C18.8239 32.249 19.3364 31.899 19.8739 31.5616C20.1113 31.3491 20.3113 31.1241 20.4988 30.8741C21.0738 30.3616 21.6363 29.8242 22.1862 29.2492C23.7111 26.9493 25.286 24.6995 26.9359 22.4996C27.7984 21.6746 28.6983 20.9122 29.6233 20.1872C29.5983 20.0747 29.5483 19.9747 29.4983 19.8747C28.9233 19.7372 28.5858 19.3873 28.4984 18.8123C29.1483 17.4124 29.4858 15.925 29.4983 14.3751C29.5858 13.7876 29.6233 13.1876 29.6233 12.5627C29.6358 11.5502 29.5608 10.5753 29.3733 9.62533C29.2108 8.50039 28.8983 7.41295 28.4359 6.37551C28.2109 5.85054 27.8109 5.51306 27.2484 5.37557C26.9859 4.9006 26.7985 4.40063 26.686 3.87566C26.3485 3.53818 25.961 3.43818 25.4985 3.56318C24.5736 4.10065 23.7736 4.78811 23.1237 5.62556C22.5737 6.06303 21.9487 6.22552 21.2488 6.12553C21.4113 5.65056 21.6987 5.25058 22.1237 4.9381C22.7862 4.72561 23.3487 4.36313 23.8111 3.87566C24.2361 2.80072 24.0111 1.90077 23.1237 1.18831C22.2112 0.700842 21.2488 0.38836 20.2488 0.250868C19.8989 0.150873 19.5239 0.088377 19.1239 0.0633784C16.3241 -0.0741137 13.5367 0.0133813 10.7494 0.313364C10.6744 0.363361 10.6369 0.425857 10.6244 0.500853C9.46195 0.72584 8.37452 1.16332 7.37457 1.81328C4.28725 4.25064 2.28737 7.40046 1.37492 11.2502C1.27493 11.4752 1.19993 11.7252 1.12494 12.0002C1.32492 12.1002 1.44992 12.0127 1.49991 11.7502C2.87483 8.95037 4.94971 6.83799 7.74955 5.43807C11.3868 4.08815 15.0991 3.88816 18.8739 4.8131C20.1988 6.7005 21.8237 8.26291 23.7486 9.50033C23.8236 11.1752 23.9361 12.8376 24.0611 14.5C24.2736 15.775 24.7861 16.8999 25.6235 17.8748C25.3985 17.9998 25.211 18.1623 25.0611 18.3748C25.0236 18.8748 24.9736 19.3748 24.9361 19.8747C24.6611 20.3997 24.4111 20.9372 24.1861 21.4996C22.5862 23.987 21.0238 26.4869 19.4989 28.9992C18.6739 30.0117 17.8615 31.0616 17.0615 32.124C14.6742 34.6364 12.3493 37.1737 10.0619 39.7486C8.612 41.7485 7.11209 43.6984 5.56218 45.6233C4.92472 46.4107 4.11226 46.9107 3.12482 47.1232C2.87483 47.2982 2.66235 47.4981 2.49986 47.7481C1.97489 48.6106 1.44992 49.4855 0.937446 50.373C0.624964 50.5605 0.312482 50.748 0 50.9354C4.87472 51.1979 9.74944 51.5104 14.6242 51.8729C16.5615 52.0229 18.5239 52.0354 20.4988 51.9354C20.7363 51.9104 20.9363 51.8479 21.1238 51.7479C21.6238 51.6479 22.1237 51.5229 22.6237 51.3729C23.5861 51.2229 24.5361 51.2229 25.4985 51.3729C26.786 52.2229 28.0359 52.1229 29.2483 51.0604C30.3232 49.7355 31.2982 48.3356 32.1856 46.8732C32.4981 46.2357 32.7356 45.5733 32.8731 44.8733C33.0356 44.4733 33.0356 44.0608 32.8731 43.6234C32.7981 43.6359 32.7481 43.6734 32.7481 43.7484Z" fill="white"/>
</svg>
